<?xml version="1.0" encoding="UTF-8"?>
<svg version="1.1" xmlns="http://www.w3.org/2000/svg" width="1024" height="1024">
<path d="M0 0 C1.78664063 -0.00262848 1.78664063 -0.00262848 3.609375 -0.00531006 C6.86066355 -0.00893969 10.11191089 -0.00810662 13.36319876 -0.00493097 C16.84199692 -0.00235533 20.32079277 -0.00476173 23.79959106 -0.00631714 C29.69224521 -0.00813597 35.58488683 -0.00575262 41.47753906 -0.00097656 C47.38770381 0.00376114 53.2978432 0.00392972 59.20800781 -0.00097656 C89.04794446 -0.02485297 118.88915486 0.01372735 148.72699356 0.40140152 C151.25189413 0.43281298 153.77685019 0.46012373 156.30184555 0.4826622 C197.11848252 0.86664484 239.66347111 3.53305259 270.60205078 33.12939453 C269.10176861 37.3009108 266.65094745 38.55039635 262.85205078 40.62939453 C259.47548474 42.50346946 256.20344359 44.32732977 253.10205078 46.62939453 C250.60205078 48.12939453 250.60205078 48.12939453 248.71533203 47.91845703 C246.1802222 46.97189107 244.43393024 45.65619632 242.28955078 44.00439453 C210.33843847 21.14201505 167.58401607 21.08415075 130.03955078 21.00439453 C128.9864975 21.00037628 128.9864975 21.00037628 127.91217041 20.99627686 C103.25947563 19.84468873 103.25947563 19.84468873 81.60205078 29.12939453 C73.65890061 40.60283367 75.31384398 57.97531443 75.375 71.42163086 C75.37556577 73.19249973 75.37524433 74.96336907 75.37411499 76.73423767 C75.37354682 81.48958059 75.38521441 86.2448203 75.39926291 91.00013947 C75.41186627 95.99281922 75.41294846 100.98550199 75.41531372 105.97819519 C75.42150264 115.41246621 75.4378761 124.84669027 75.4580127 134.28094071 C75.48043197 145.01904236 75.49138366 155.75714634 75.50140357 166.4952656 C75.52139115 187.66147375 75.55429469 208.82764248 75.59646416 229.99381733 C75.60426533 234.37234177 75.60205078 238.75086369 75.60205078 243.12939453 C75.87017578 241.89189453 76.13830078 240.65439453 76.41455078 239.37939453 C88.74601531 184.12837854 116.85757486 137.68161394 165.02001953 106.91845703 C182.94191102 95.75821254 202.02007858 86.9051284 221.36230469 78.54003906 C250.80187484 65.72151334 280.66487863 52.15949445 298.60205078 24.12939453 C299.26205078 23.13939453 299.92205078 22.14939453 300.60205078 21.12939453 C301.26205078 21.12939453 301.92205078 21.12939453 302.60205078 21.12939453 C308.55348873 37.41277043 310.09387852 54.89812002 310.60205078 72.12939453 C310.66392578 74.01078125 310.66392578 74.01078125 310.72705078 75.93017578 C311.41978482 118.3168398 301.37896457 161.74117841 272.23876953 193.72314453 C270.40058844 195.5786343 268.52126157 197.3587678 266.60205078 199.12939453 C265.82216797 199.92474609 265.04228516 200.72009766 264.23876953 201.53955078 C250.33706119 215.19411764 233.06562727 223.52845801 214.60205078 229.12939453 C213.8945166 229.34547363 213.18698242 229.56155273 212.45800781 229.78417969 C194.54767115 235.12940311 175.97971891 237.84792466 157.54296875 240.69726562 C125.11388803 245.68668367 125.11388803 245.68668367 97.82861328 262.90283203 C97.42384766 263.30759766 97.01908203 263.71236328 96.60205078 264.12939453 C95.94205078 264.12939453 95.28205078 264.12939453 94.60205078 264.12939453 C94.60205078 264.78939453 94.60205078 265.44939453 94.60205078 266.12939453 C93.90080078 266.81001953 93.19955078 267.49064453 92.47705078 268.19189453 C80.7549925 279.58282122 75.96006868 296.50054139 75.50872803 312.42129517 C75.47003877 316.34111967 75.46278991 320.2602344 75.46923828 324.18017578 C75.46856236 325.64397701 75.46758996 327.10777813 75.46633911 328.57157898 C75.46487056 331.63521395 75.46698605 334.69881963 75.47167969 337.76245117 C75.4773216 341.62726137 75.47402918 345.49200192 75.46824646 349.35680962 C75.42119054 369.09102088 75.42119054 369.09102088 76.03173828 388.81298828 C76.06838593 389.56888748 76.10503357 390.32478668 76.14279175 391.10359192 C76.68765783 400.47846966 77.47769159 412.26119208 84.60205078 419.12939453 C91.65812146 424.15957869 99.1912954 425.98962289 107.63818359 427.01733398 C112.54869266 427.66888088 115.78447072 428.95396914 119.60205078 432.12939453 C120.22705078 435.19189453 120.22705078 435.19189453 119.60205078 438.12939453 C116.62941968 441.00353035 114.48999497 441.5084145 110.41833496 441.53485107 C109.36999481 441.54883438 108.32165466 441.56281769 107.24154663 441.57722473 C105.52410751 441.57742867 105.52410751 441.57742867 103.77197266 441.57763672 C102.56171417 441.58943466 101.35145569 441.6012326 100.10452271 441.61338806 C96.78575724 441.64264187 93.46743455 441.65863622 90.14858818 441.668437 C86.6654331 441.68156727 83.18240972 441.71071246 79.69934082 441.737854 C73.84174268 441.78117285 67.98417 441.81326979 62.12646484 441.83789062 C55.38049712 441.86630236 48.63473576 441.90850773 41.88890028 441.95913005 C34.68276899 442.0131927 27.47660452 442.05887717 20.27039528 442.10116673 C18.20800167 442.11369541 16.14562026 442.12754827 14.08323669 442.14162445 C10.21127505 442.16740103 6.33930356 442.18358537 2.46728516 442.19873047 C0.77413681 442.21107979 0.77413681 442.21107979 -0.95321655 442.22367859 C-20.58612714 442.27325152 -20.58612714 442.27325152 -24.25101471 439.95949936 C-25.64794922 438.56689453 -25.64794922 438.56689453 -27.39794922 436.12939453 C-26.32393814 433.21422161 -25.61984746 431.35129278 -23.39794922 429.12939453 C-21.55371094 428.52270508 -21.55371094 428.52270508 -19.32763672 428.01611328 C-18.10560547 427.72124023 -18.10560547 427.72124023 -16.85888672 427.42041016 C-15.15973859 427.0238567 -13.45923681 426.63305112 -11.75732422 426.24853516 C-6.49757866 424.96657523 -2.44551049 423.23392495 2.00390625 420.12866211 C3.60205078 419.12939453 3.60205078 419.12939453 5.60205078 419.12939453 C6.28979484 417.80680981 6.94916451 416.4695295 7.60205078 415.12939453 C8.09705078 414.16001953 8.59205078 413.19064453 9.10205078 412.19189453 C14.2873302 399.6160458 13.05595656 384.44825686 13.22705078 371.12939453 C13.24539978 369.87851044 13.26374878 368.62762634 13.28265381 367.33883667 C14.37541087 291.5671553 13.5462177 215.76557815 12.97582746 139.99219298 C12.95807716 137.62910462 12.94046664 135.26601525 12.92290306 132.90292549 C12.91138307 131.3546562 12.8998608 129.80638693 12.88833618 128.25811768 C12.88270908 127.50153756 12.87708198 126.74495744 12.87128437 125.96545064 C12.83899562 121.64391634 12.80541758 117.32239481 12.77066648 113.00087965 C12.7545931 110.9801893 12.73909189 108.95949547 12.72382164 106.9387989 C12.70399287 104.31490448 12.68326662 101.69101666 12.66160011 99.06713676 C12.61064674 92.08820699 12.60684726 85.11290377 12.65893555 78.13412476 C12.67218108 75.86263148 12.68484123 73.59113545 12.69745731 71.31963861 C12.71273689 69.2090437 12.73940771 67.0988152 12.76665497 64.98834705 C13.07140478 45.06710869 13.07140478 45.06710869 5.60205078 27.12939453 C-1.14178092 20.38556283 -11.58316838 18.74141298 -20.55419922 16.25439453 C-21.43076172 16.00689453 -22.30732422 15.75939453 -23.21044922 15.50439453 C-23.95939453 15.30587891 -24.70833984 15.10736328 -25.47998047 14.90283203 C-27.75093294 13.98705079 -28.91633275 13.07692813 -30.39794922 11.12939453 C-30.46044922 7.62939453 -30.46044922 7.62939453 -29.39794922 4.12939453 C-21.99494009 -1.71508636 -8.96209677 -0.01650841 0 0 Z M241.60205078 116.12939453 C241.27205078 116.78939453 240.94205078 117.44939453 240.60205078 118.12939453 C241.59205078 117.79939453 242.58205078 117.46939453 243.60205078 117.12939453 C242.94205078 116.79939453 242.28205078 116.46939453 241.60205078 116.12939453 Z M238.60205078 118.12939453 C238.27205078 118.78939453 237.94205078 119.44939453 237.60205078 120.12939453 C238.59205078 119.79939453 239.58205078 119.46939453 240.60205078 119.12939453 C239.94205078 118.79939453 239.28205078 118.46939453 238.60205078 118.12939453 Z M230.22705078 123.37939453 C229.04554898 124.12023904 227.86320125 124.85973554 226.68017578 125.59814453 C225.70467773 126.20722656 225.70467773 126.20722656 224.70947266 126.82861328 C221.6605224 128.7105418 218.58176996 130.54119839 215.50341797 132.37451172 C186.54364892 149.62499649 157.8382055 167.65771199 132.60205078 190.12939453 C131.72419922 190.89638672 130.84634766 191.66337891 129.94189453 192.45361328 C107.81366409 211.98677391 87.5681958 236.37254371 78.47705078 264.94189453 C78.26467773 265.60560059 78.05230469 266.26930664 77.83349609 266.953125 C76.84643219 270.32224488 76.27872998 272.80434163 77.60205078 276.12939453 C78.40255859 274.64052734 78.40255859 274.64052734 79.21923828 273.12158203 C91.01462124 251.48419164 106.50107042 232.79352463 123.60205078 215.12939453 C124.19695312 214.51257813 124.79185547 213.89576172 125.40478516 213.26025391 C131.97450432 206.47746277 138.61625663 200.06003314 146.03564453 194.19580078 C148.59198504 192.13749921 151.00199836 189.97865018 153.41455078 187.75439453 C158.45797503 183.15927466 163.78244374 178.99255791 169.16845703 174.81298828 C172.15203052 172.49444304 175.07161699 170.10799211 177.97705078 167.69189453 C183.79464159 162.89840624 189.83139309 158.41550344 195.87548828 153.91455078 C199.42960626 151.26622819 202.93125142 148.55651029 206.41845703 145.82080078 C209.01802491 143.80718201 211.65275371 141.84399892 214.28955078 139.87939453 C218.9417218 136.39325609 223.57050658 132.8793545 228.16455078 129.31689453 C228.76033936 128.86088867 229.35612793 128.40488281 229.9699707 127.93505859 C232.98448298 125.58307173 235.49994163 123.33866437 237.60205078 120.12939453 C234.54889286 120.12939453 232.79579019 121.7549475 230.22705078 123.37939453 Z " fill="#94AE72" transform="translate(375.39794921875,286.87060546875)"/>
<path d="M0 0 C6.32337625 6.61080245 5.4028501 17.87260489 5.61790466 26.38798523 C5.65554725 27.66367424 5.69318984 28.93936324 5.73197311 30.2537095 C6.08333721 43.10009504 6.13421919 55.94196763 6.11352539 68.79223633 C6.11324221 71.31864928 6.11340379 73.84506231 6.1139679 76.37147522 C6.11419273 81.73976585 6.11143002 87.10804055 6.10573006 92.4763279 C6.09749504 100.23733162 6.09498777 107.99832953 6.09374207 115.75933715 C6.09157005 128.3604762 6.08496099 140.96160866 6.07543945 153.56274414 C6.06621687 165.78116829 6.05915995 177.99959063 6.05493164 190.21801758 C6.05466892 190.97506946 6.05440619 191.73212135 6.05413551 192.5121142 C6.05283018 196.31118804 6.05156654 200.11026188 6.05032361 203.90933573 C6.04000881 235.27289527 6.02236591 266.63644662 6 298 C5.67 298 5.34 298 5 298 C4.32493939 242.39769497 3.84582966 186.79476992 3.47089767 131.18974304 C3.44325369 127.09283451 3.41522936 122.99592867 3.38708711 118.89902353 C3.32745964 110.21620044 3.26934066 101.53336866 3.21280289 92.8505249 C3.19388371 89.94736428 3.17453167 87.04420712 3.15475082 84.14105225 C3.13619751 81.4118768 3.11830341 78.68269852 3.10112 75.9535141 C3.08445417 73.30772057 3.06688026 70.66193259 3.0483551 68.01615143 C3.00526835 61.00600181 3.0060476 53.9990884 3.05911255 46.98913574 C3.07250066 44.71737786 3.08519865 42.445617 3.09774792 40.17385435 C3.11288692 38.06454344 3.13937656 35.95559487 3.16639614 33.84640884 C3.2312583 22.33870074 1.93765179 11.33459093 0 0 Z " fill="#879D65" transform="translate(385,318)"/>
<path d="M0 0 C0.66 0 1.32 0 2 0 C0.47760972 3.58498356 -1.66101787 5.85831918 -4.375 8.625 C-27.11311608 32.87228308 -38.63153758 65.4952003 -47 97 C-47.33 97 -47.66 97 -48 97 C-47.61335269 89.03194544 -45.73707074 81.9709712 -43.1875 74.4375 C-42.7951416 73.27089844 -42.4027832 72.10429687 -41.99853516 70.90234375 C-33.63316228 46.8401476 -21.4193004 25.35605676 -5.125 5.8125 C-4.64836914 5.23516113 -4.17173828 4.65782227 -3.68066406 4.06298828 C-2.49951552 2.66858858 -1.25468728 1.32861667 0 0 Z " fill="#869D63" transform="translate(502,425)"/>
<path d="M0 0 C0.33 0 0.66 0 1 0 C1 33.33 1 66.66 1 101 C0.67 101 0.34 101 0 101 C-1.20628346 91.79203624 -1.35727991 82.58350264 -1.60546875 73.30859375 C-1.64285156 72.05691406 -1.68023437 70.80523438 -1.71875 69.515625 C-1.74904297 68.38415039 -1.77933594 67.25267578 -1.81054688 66.08691406 C-1.91565939 63.09410034 -1.91565939 63.09410034 -2.52294922 60.59399414 C-3.17590207 57.04352124 -3.03104971 53.57031969 -2.9140625 49.98046875 C-2.89282318 49.2042366 -2.87158386 48.42800446 -2.84970093 47.62825012 C-2.80353102 45.98329025 -2.75461054 44.33840559 -2.703125 42.69360352 C-2.62645032 40.23402365 -2.55853018 37.77433093 -2.4921875 35.31445312 C-1.70666891 7.50702483 -1.70666891 7.50702483 0 0 Z " fill="#899F66" transform="translate(450,586)"/>
<path d="M0 0 C0.66 0.33 1.32 0.66 2 1 C0.8803014 2.00593243 -0.2459412 3.0045849 -1.375 4 C-2.00148438 4.556875 -2.62796875 5.11375 -3.2734375 5.6875 C-5 7 -5 7 -7 7 C-7 7.66 -7 8.32 -7 9 C-8.4753418 10.28588867 -8.4753418 10.28588867 -10.51171875 11.73046875 C-14.73051207 14.79134387 -18.78000021 18.01168773 -22.8125 21.3125 C-23.49957031 21.87283936 -24.18664062 22.43317871 -24.89453125 23.01049805 C-26.93102526 24.67203589 -28.96573249 26.33573736 -31 28 C-32.1601203 28.94796067 -33.32027389 29.89588059 -34.48046875 30.84375 C-36.98834535 32.89417433 -39.4949759 34.94609253 -42 37 C-42.66 36.67 -43.32 36.34 -44 36 C-37.08385524 29.49317809 -29.9347939 23.48307765 -22.4296875 17.671875 C-19.28126347 15.23268232 -16.19658642 12.72304779 -13.125 10.1875 C-8.84233385 6.65985203 -4.47977934 3.2731912 0 0 Z " fill="#879E64" transform="translate(567,443)"/>
<path d="M0 0 C0.66 0 1.32 0 2 0 C4.10575375 5.52760359 5.37851209 10.06997733 5 16 C3.03698408 12.49461443 2.04097612 8.86648272 1 5 C-3.43489854 9.29360974 -7.20300289 13.92382048 -11.01171875 18.76953125 C-11.66785156 19.50558594 -12.32398438 20.24164063 -13 21 C-13.66 21 -14.32 21 -15 21 C-13.54040103 17.67660543 -11.66678037 15.3857168 -9.1875 12.75 C-5.93471874 9.19024119 -3.35286633 5.63993156 -1.0078125 1.43359375 C-0.67523437 0.96050781 -0.34265625 0.48742187 0 0 Z " fill="#889E65" transform="translate(676,308)"/>
<path d="M0 0 C0.66 0.33 1.32 0.66 2 1 C-4.00354191 5.90674098 -10.11903034 10.64894792 -16.3125 15.3125 C-16.99376953 15.82780273 -17.67503906 16.34310547 -18.37695312 16.87402344 C-21.81968341 19.45522485 -25.24893136 21.87415259 -29 24 C-27.60412219 20.70971658 -26.10007251 19.0071971 -23.25 16.875 C-22.45722656 16.27945312 -21.66445313 15.68390625 -20.84765625 15.0703125 C-16.29790853 11.76253981 -11.72767727 8.48469105 -7.13671875 5.234375 C-4.73089032 3.5206342 -2.35081863 1.78778306 0 0 Z " fill="#89A065" transform="translate(599,419)"/>
<path d="M0 0 C0 0.66 0 1.32 0 2 C-1.46875 3.41015625 -1.46875 3.41015625 -3.5 5.0625 C-6.65411093 7.73179176 -9.42224577 10.49961432 -12.125 13.625 C-15.18854108 17.16684098 -18.3020998 20.13412735 -22 23 C-21.45007108 19.04411418 -19.59746667 17.22353001 -16.81640625 14.453125 C-15.97142578 13.60878906 -15.12644531 12.76445312 -14.25585938 11.89453125 C-13.36705078 11.02183594 -12.47824219 10.14914062 -11.5625 9.25 C-10.67755859 8.36183594 -9.79261719 7.47367187 -8.88085938 6.55859375 C-2.26685508 0 -2.26685508 0 0 0 Z " fill="#89A065" transform="translate(513,489)"/>
<path d="M0 0 C0.66 0.33 1.32 0.66 2 1 C0.38050958 2.50594681 -1.24575974 4.00460668 -2.875 5.5 C-3.77992188 6.3353125 -4.68484375 7.170625 -5.6171875 8.03125 C-8 10 -8 10 -10 10 C-10.33 10.99 -10.66 11.98 -11 13 C-12.95597184 14.39712274 -14.95436401 15.73779907 -17 17 C-15.70167829 14.1087434 -14.36973227 12.1516981 -12.03125 10.01953125 C-11.46019531 9.49552734 -10.88914062 8.97152344 -10.30078125 8.43164062 C-9.70652344 7.89732422 -9.11226562 7.36300781 -8.5 6.8125 C-7.90574219 6.26658203 -7.31148437 5.72066406 -6.69921875 5.15820312 C-2.29698231 1.14849116 -2.29698231 1.14849116 0 0 Z " fill="#89A065" transform="translate(522,407)"/>
<path d="M0 0 C0.66 0.33 1.32 0.66 2 1 C-2.56630734 5.87072783 -7.74976539 9.89156398 -13 14 C-13.66 13.67 -14.32 13.34 -15 13 C-7.43842812 6.16771678 -7.43842812 6.16771678 -3.5625 3.6875 C-0.91744289 2.252416 -0.91744289 2.252416 0 0 Z " fill="#8DA569" transform="translate(623,399)"/>
<path d="M0 0 C2 1 2 1 2 1 Z " fill="#97AE77" transform="translate(478,712)"/>
<path d="M0 0 C2 1 2 1 2 1 Z " fill="#99B07A" transform="translate(361,712)"/>
<path d="M0 0 C2 1 2 1 2 1 Z " fill="#99B078" transform="translate(540,527)"/>
<path d="" fill="#9CB17A" transform="translate(0,0)"/>
<path d="M0 0 C2 1 2 1 2 1 Z " fill="#9EB57E" transform="translate(568,440)"/>
<path d="" fill="#97AF79" transform="translate(0,0)"/>
<path d="" fill="#4B5047" transform="translate(0,0)"/>
<path d="" fill="#97AB77" transform="translate(0,0)"/>
<path d="" fill="#99B279" transform="translate(0,0)"/>
<path d="" fill="#99B37A" transform="translate(0,0)"/>
<path d="" fill="#9BB179" transform="translate(0,0)"/>
<path d="" fill="#98AF79" transform="translate(0,0)"/>
<path d="" fill="#9DB47B" transform="translate(0,0)"/>
<path d="" fill="#98B279" transform="translate(0,0)"/>
<path d="" fill="#9CB379" transform="translate(0,0)"/>
<path d="" fill="#95AD78" transform="translate(0,0)"/>
<path d="" fill="#9BB379" transform="translate(0,0)"/>
<path d="" fill="#9BB279" transform="translate(0,0)"/>
<path d="" fill="#9BB37B" transform="translate(0,0)"/>
<path d="" fill="#9BB479" transform="translate(0,0)"/>
<path d="" fill="#9DB37E" transform="translate(0,0)"/>
<path d="" fill="#97AF7A" transform="translate(0,0)"/>
<path d="" fill="#9CB47C" transform="translate(0,0)"/>
<path d="" fill="#9DB37A" transform="translate(0,0)"/>
<path d="" fill="#9FB57C" transform="translate(0,0)"/>
<path d="" fill="#9DB57C" transform="translate(0,0)"/>
<path d="" fill="#9CB77D" transform="translate(0,0)"/>
<path d="" fill="#9FB57E" transform="translate(0,0)"/>
<path d="" fill="#A0B77D" transform="translate(0,0)"/>
<path d="" fill="#9DB37D" transform="translate(0,0)"/>
<path d="" fill="#9EB57E" transform="translate(0,0)"/>
<path d="" fill="#97AF79" transform="translate(0,0)"/>
<path d="" fill="#9AB27A" transform="translate(0,0)"/>
<path d="" fill="#95AD79" transform="translate(0,0)"/>
<path d="" fill="#9DB27C" transform="translate(0,0)"/>
<path d="" fill="#9CB57B" transform="translate(0,0)"/>
<path d="" fill="#9CB27D" transform="translate(0,0)"/>
<path d="" fill="#9BB27A" transform="translate(0,0)"/>
<path d="" fill="#9EB47A" transform="translate(0,0)"/>
<path d="" fill="#9DB47E" transform="translate(0,0)"/>
<path d="" fill="#9BB47D" transform="translate(0,0)"/>
<path d="" fill="#92A775" transform="translate(0,0)"/>
<path d="" fill="#9BB378" transform="translate(0,0)"/>
<path d="" fill="#9BB37C" transform="translate(0,0)"/>
<path d="" fill="#97B178" transform="translate(0,0)"/>
<path d="" fill="#585E53" transform="translate(0,0)"/>
</svg>
