<svg width="508" height="130" viewBox="0 0 508 130" fill="none" xmlns="http://www.w3.org/2000/svg">
<path d="M7.48952 15.0596C7.9294 15.0589 7.9294 15.0589 8.37817 15.0583C9.17865 15.0574 9.97912 15.0576 10.7796 15.0584C11.6361 15.059 12.4926 15.0584 13.3491 15.058C14.7999 15.0576 16.2507 15.0582 17.7015 15.0593C19.1566 15.0605 20.6117 15.0606 22.0668 15.0593C29.4135 15.0535 36.7605 15.063 44.1067 15.1585C44.7284 15.1662 45.35 15.1729 45.9717 15.1785C56.0209 15.2731 66.4957 15.9299 74.1129 23.2207C73.7435 24.2483 73.1401 24.5561 72.2048 25.0682C71.3735 25.5299 70.5679 25.9792 69.8043 26.5463C69.1888 26.9158 69.1888 26.9158 68.7243 26.8638C68.1001 26.6307 67.6702 26.3065 67.1422 25.8996C59.2757 20.2677 48.7494 20.2535 39.5058 20.2338C39.2465 20.2328 39.2465 20.2328 38.982 20.2318C32.9124 19.9481 32.9124 19.9481 27.5803 22.2353C25.6246 25.0617 26.0321 29.3412 26.0472 32.6536C26.0473 33.0898 26.0472 33.5261 26.0469 33.9623C26.0468 35.1337 26.0497 36.3052 26.0531 37.4766C26.0562 38.7065 26.0565 39.9364 26.0571 41.1663C26.0586 43.4903 26.0626 45.8143 26.0676 48.1384C26.0731 50.7836 26.0758 53.4288 26.0783 56.0741C26.0832 61.2882 26.0913 66.5022 26.1017 71.7163C26.1036 72.7949 26.1031 73.8735 26.1031 74.9521C26.1691 74.6473 26.2351 74.3424 26.3031 74.0284C29.3392 60.4178 36.2603 48.9761 48.1181 41.3979C52.5306 38.6487 57.2277 36.4678 61.9898 34.4072C69.238 31.2494 76.5904 27.9086 81.0066 21.0036C81.1691 20.7597 81.3316 20.5159 81.499 20.2646C81.6615 20.2646 81.824 20.2646 81.9914 20.2646C83.4567 24.2759 83.8359 28.5832 83.961 32.828C83.9763 33.2914 83.9763 33.2914 83.9918 33.7642C84.1624 44.2058 81.6903 54.9029 74.5158 62.7814C74.0633 63.2385 73.6006 63.677 73.1281 64.1132C72.936 64.3091 72.744 64.505 72.5462 64.7069C69.1235 68.0706 64.8712 70.1236 60.3254 71.5034C60.1512 71.5566 59.977 71.6098 59.7976 71.6647C55.388 72.9814 50.8165 73.6511 46.2773 74.353C38.2931 75.5821 38.2931 75.5821 31.5753 79.8231C31.4757 79.9228 31.376 80.0226 31.2733 80.1253C31.1109 80.1253 30.9484 80.1253 30.7809 80.1253C30.7809 80.2879 30.7809 80.4505 30.7809 80.618C30.6083 80.7856 30.4356 80.9533 30.2578 81.126C27.3717 83.9321 26.1912 88.0996 26.0801 92.0215C26.0706 92.9871 26.0688 93.9526 26.0704 94.9182C26.0702 95.2788 26.07 95.6394 26.0696 96C26.0693 96.7547 26.0698 97.5094 26.071 98.2641C26.0724 99.2161 26.0715 100.168 26.0701 101.12C26.0585 105.982 26.0585 105.982 26.2089 110.84C26.2179 111.026 26.2269 111.212 26.2362 111.404C26.3703 113.714 26.5649 116.616 28.3189 118.308C30.0561 119.547 31.9108 119.998 33.9905 120.251C35.1995 120.412 35.9961 120.728 36.936 121.51C37.0899 122.265 37.0899 122.265 36.936 122.988C36.2042 123.697 35.6774 123.821 34.675 123.827C34.4169 123.831 34.1588 123.834 33.8928 123.838C33.47 123.838 33.47 123.838 33.0386 123.838C32.7406 123.841 32.4427 123.844 32.1357 123.847C31.3186 123.854 30.5016 123.858 29.6845 123.86C28.8269 123.864 27.9694 123.871 27.1118 123.877C25.6697 123.888 24.2275 123.896 22.7853 123.902C21.1244 123.909 19.4636 123.919 17.8027 123.932C16.0286 123.945 14.2544 123.956 12.4802 123.967C11.9724 123.97 11.4646 123.973 10.9569 123.977C10.0036 123.983 9.05029 123.987 8.09698 123.991C7.68012 123.994 7.68012 123.994 7.25484 123.997C2.42113 124.009 2.42113 124.009 1.51882 123.439C1.17489 123.096 1.17489 123.096 0.744033 122.496C1.00846 121.778 1.18181 121.319 1.72885 120.771C2.18291 120.622 2.18291 120.622 2.73098 120.497C3.03185 120.425 3.03185 120.425 3.33879 120.35C3.75713 120.253 4.1758 120.156 4.59482 120.062C5.88979 119.746 6.88743 119.319 7.98289 118.554C8.37636 118.308 8.37636 118.308 8.86877 118.308C9.0381 117.982 9.20044 117.653 9.36118 117.323C9.48305 117.084 9.60492 116.845 9.73049 116.599C11.0071 113.501 10.704 109.765 10.7461 106.484C10.7506 106.176 10.7551 105.867 10.7598 105.55C11.0288 86.8843 10.8247 68.2113 10.6842 49.5453C10.6799 48.9632 10.6755 48.381 10.6712 47.7989C10.6684 47.4175 10.6655 47.0361 10.6627 46.6547C10.6613 46.4683 10.6599 46.282 10.6585 46.0899C10.6505 45.0254 10.6423 43.9608 10.6337 42.8962C10.6298 42.3985 10.6259 41.9007 10.6222 41.4029C10.6173 40.7565 10.6122 40.1102 10.6069 39.4638C10.5943 37.7446 10.5934 36.0263 10.6062 34.3072C10.6095 33.7476 10.6126 33.188 10.6157 32.6285C10.6195 32.1086 10.626 31.5887 10.6327 31.0688C10.7078 26.1614 10.7078 26.1614 8.86877 21.7426C7.20841 20.0814 4.6377 19.6763 2.42899 19.0637C2.21318 19.0027 1.99737 18.9418 1.77501 18.8789C1.59062 18.83 1.40623 18.7811 1.21625 18.7308C0.657127 18.5052 0.370201 18.281 0.00542091 17.8012C-0.00996684 16.939 -0.00996685 16.939 0.251625 16.0768C2.07428 14.6371 5.28302 15.0555 7.48952 15.0596ZM66.9729 43.6669C66.8917 43.8295 66.8105 43.9921 66.7267 44.1596C66.9705 44.0783 67.2142 43.997 67.4654 43.9133C67.3029 43.832 67.1404 43.7507 66.9729 43.6669ZM66.2343 44.1596C66.1531 44.3222 66.0718 44.4848 65.9881 44.6523C66.2319 44.571 66.4756 44.4897 66.7267 44.4059C66.5642 44.3247 66.4018 44.2434 66.2343 44.1596ZM64.1724 45.4529C63.8815 45.6354 63.5904 45.8176 63.2991 45.9995C63.0589 46.1495 63.059 46.1495 62.8139 46.3026C62.0633 46.7662 61.3053 47.2171 60.5474 47.6688C53.4173 51.9182 46.3499 56.3604 40.1367 61.8961C39.9206 62.085 39.7044 62.274 39.4818 62.4687C34.0337 67.2805 29.0492 73.2877 26.8109 80.3254C26.7586 80.4889 26.7063 80.6524 26.6525 80.8209C26.4094 81.6508 26.2697 82.2623 26.5955 83.0814C26.7926 82.7146 26.7926 82.7146 26.9936 82.3404C29.8977 77.0103 33.7105 72.406 37.9209 68.0546C38.0673 67.9027 38.2138 67.7507 38.3647 67.5942C39.9822 65.9233 41.6174 64.3424 43.4441 62.8978C44.0735 62.3908 44.6668 61.859 45.2608 61.311C46.5025 60.1791 47.8134 59.1527 49.1395 58.1231C49.8741 57.5519 50.5929 56.964 51.3082 56.3688C52.7405 55.188 54.2268 54.0837 55.7149 52.9749C56.5899 52.3225 57.452 51.655 58.3106 50.9811C58.9506 50.4851 59.5993 50.0015 60.2485 49.5175C61.3939 48.6587 62.5335 47.7931 63.6646 46.9155C63.8113 46.8032 63.9579 46.6909 64.1091 46.5751C64.8513 45.9957 65.4706 45.4429 65.9881 44.6523C65.2364 44.6523 64.8048 45.0527 64.1724 45.4529Z" fill="#94AE72"/>
<path d="M102.56 124.16C102.56 125.184 102.176 126.08 101.408 126.848C100.64 127.616 99.744 128 98.72 128C97.6107 128 96.672 127.616 95.904 126.848C95.2213 126.08 94.88 125.184 94.88 124.16V37.12C94.88 36.096 95.264 35.2 96.032 34.432C96.8 33.664 97.696 33.28 98.72 33.28C99.8293 33.28 100.725 33.664 101.408 34.432C102.176 35.2 102.56 36.096 102.56 37.12V124.16ZM177.244 62.592C178.353 62.592 179.249 62.976 179.932 63.744C180.7 64.512 181.084 65.4507 181.084 66.56V124.16C181.084 125.184 180.7 126.08 179.932 126.848C179.164 127.616 178.268 128 177.244 128C176.135 128 175.196 127.616 174.428 126.848C173.745 126.08 173.404 125.184 173.404 124.16V108.928L175.58 107.904C175.58 110.293 174.897 112.725 173.532 115.2C172.252 117.675 170.46 119.979 168.156 122.112C165.852 124.245 163.121 125.995 159.964 127.36C156.892 128.64 153.564 129.28 149.98 129.28C144.177 129.28 138.972 127.787 134.364 124.8C129.841 121.813 126.257 117.717 123.612 112.512C121.052 107.307 119.772 101.461 119.772 94.976C119.772 88.32 121.095 82.4747 123.74 77.44C126.385 72.32 129.969 68.3093 134.492 65.408C139.015 62.5067 144.135 61.056 149.852 61.056C153.521 61.056 156.935 61.696 160.092 62.976C163.335 64.256 166.151 66.0053 168.54 68.224C170.929 70.4427 172.764 73.0027 174.044 75.904C175.409 78.72 176.092 81.664 176.092 84.736L173.404 82.816V66.56C173.404 65.4507 173.745 64.512 174.428 63.744C175.196 62.976 176.135 62.592 177.244 62.592ZM150.62 122.112C155.143 122.112 159.153 120.96 162.652 118.656C166.151 116.267 168.881 113.024 170.844 108.928C172.892 104.747 173.916 100.096 173.916 94.976C173.916 89.9413 172.892 85.4187 170.844 81.408C168.881 77.3973 166.151 74.1973 162.652 71.808C159.153 69.4187 155.143 68.224 150.62 68.224C146.183 68.224 142.172 69.376 138.588 71.68C135.089 73.984 132.316 77.1413 130.268 81.152C128.305 85.1627 127.324 89.7707 127.324 94.976C127.324 100.096 128.305 104.747 130.268 108.928C132.316 113.024 135.089 116.267 138.588 118.656C142.087 120.96 146.097 122.112 150.62 122.112ZM232.085 61.056C237.717 61.056 242.197 62.208 245.525 64.512C248.938 66.7307 251.37 69.8027 252.821 73.728C254.357 77.568 255.125 81.8347 255.125 86.528V124.16C255.125 125.184 254.741 126.08 253.973 126.848C253.205 127.616 252.309 128 251.285 128C250.09 128 249.152 127.616 248.469 126.848C247.786 126.08 247.445 125.184 247.445 124.16V86.912C247.445 83.4987 246.89 80.384 245.781 77.568C244.672 74.752 242.837 72.4907 240.277 70.784C237.802 69.0773 234.517 68.224 230.421 68.224C226.752 68.224 223.253 69.0773 219.925 70.784C216.682 72.4907 214.037 74.752 211.989 77.568C209.941 80.384 208.917 83.4987 208.917 86.912V124.16C208.917 125.184 208.533 126.08 207.765 126.848C206.997 127.616 206.101 128 205.077 128C203.882 128 202.944 127.616 202.261 126.848C201.578 126.08 201.237 125.184 201.237 124.16V66.816C201.237 65.792 201.578 64.896 202.261 64.128C203.029 63.36 203.968 62.976 205.077 62.976C206.186 62.976 207.082 63.36 207.765 64.128C208.533 64.896 208.917 65.792 208.917 66.816V77.568L205.973 82.176C206.144 79.4453 206.997 76.8427 208.533 74.368C210.154 71.808 212.202 69.5467 214.677 67.584C217.152 65.536 219.882 63.9573 222.869 62.848C225.941 61.6533 229.013 61.056 232.085 61.056ZM271.013 62.848H300.837C301.861 62.848 302.714 63.232 303.397 64C304.08 64.6827 304.421 65.536 304.421 66.56C304.421 67.4987 304.08 68.3093 303.397 68.992C302.714 69.6747 301.861 70.016 300.837 70.016H271.013C269.989 70.016 269.093 69.6747 268.325 68.992C267.642 68.224 267.301 67.3707 267.301 66.432C267.301 65.408 267.642 64.5547 268.325 63.872C269.093 63.1893 269.989 62.848 271.013 62.848ZM284.197 44.8C285.306 44.8 286.202 45.184 286.885 45.952C287.653 46.72 288.037 47.616 288.037 48.64V112.896C288.037 115.285 288.336 117.077 288.933 118.272C289.616 119.467 290.469 120.277 291.493 120.704C292.517 121.045 293.541 121.216 294.565 121.216C295.248 121.216 295.845 121.131 296.357 120.96C296.954 120.704 297.594 120.576 298.277 120.576C299.045 120.576 299.685 120.875 300.197 121.472C300.794 122.069 301.093 122.837 301.093 123.776C301.093 124.971 300.41 125.995 299.045 126.848C297.68 127.616 296.058 128 294.181 128C293.413 128 292.261 127.957 290.725 127.872C289.189 127.701 287.61 127.232 285.989 126.464C284.368 125.611 283.002 124.16 281.893 122.112C280.869 120.064 280.357 117.12 280.357 113.28V48.64C280.357 47.616 280.698 46.72 281.381 45.952C282.149 45.184 283.088 44.8 284.197 44.8ZM347.555 129.28C340.984 129.28 335.182 127.872 330.147 125.056C325.112 122.24 321.187 118.315 318.371 113.28C315.555 108.245 314.147 102.357 314.147 95.616C314.147 88.3627 315.555 82.176 318.371 77.056C321.272 71.936 324.984 68.0107 329.507 65.28C334.115 62.464 338.979 61.056 344.099 61.056C347.854 61.056 351.48 61.7387 354.979 63.104C358.563 64.384 361.72 66.3467 364.451 68.992C367.267 71.552 369.486 74.7093 371.107 78.464C372.814 82.2187 373.752 86.5707 373.923 91.52C373.838 92.544 373.411 93.44 372.643 94.208C371.875 94.8907 370.979 95.232 369.955 95.232H318.627L317.091 88.32H367.523L365.859 89.856V87.296C365.518 83.2853 364.238 79.872 362.019 77.056C359.8 74.24 357.112 72.1067 353.955 70.656C350.798 69.2053 347.512 68.48 344.099 68.48C341.539 68.48 338.894 68.992 336.163 70.016C333.518 71.04 331.086 72.6613 328.867 74.88C326.734 77.0133 324.984 79.7867 323.619 83.2C322.254 86.528 321.571 90.496 321.571 95.104C321.571 100.139 322.595 104.704 324.643 108.8C326.691 112.896 329.635 116.139 333.475 118.528C337.4 120.917 342.051 122.112 347.427 122.112C350.414 122.112 353.102 121.685 355.491 120.832C357.88 119.979 359.971 118.869 361.763 117.504C363.555 116.053 365.048 114.56 366.243 113.024C367.182 112.256 368.12 111.872 369.059 111.872C369.912 111.872 370.638 112.213 371.235 112.896C371.918 113.579 372.259 114.347 372.259 115.2C372.259 116.224 371.832 117.12 370.979 117.888C368.419 120.96 365.091 123.648 360.995 125.952C356.899 128.171 352.419 129.28 347.555 129.28ZM394.202 128C393.007 128 392.069 127.616 391.386 126.848C390.703 126.08 390.362 125.184 390.362 124.16V66.816C390.362 65.792 390.703 64.896 391.386 64.128C392.154 63.36 393.093 62.976 394.202 62.976C395.311 62.976 396.207 63.36 396.89 64.128C397.658 64.896 398.042 65.792 398.042 66.816V86.016L396.122 86.4C396.378 83.4133 397.103 80.4693 398.298 77.568C399.578 74.5813 401.285 71.8507 403.418 69.376C405.551 66.9013 408.069 64.896 410.97 63.36C413.957 61.824 417.285 61.056 420.954 61.056C422.49 61.056 423.983 61.3973 425.434 62.08C426.885 62.6773 427.61 63.7013 427.61 65.152C427.61 66.432 427.269 67.4133 426.586 68.096C425.903 68.7787 425.093 69.12 424.154 69.12C423.386 69.12 422.533 68.9067 421.594 68.48C420.741 68.0533 419.589 67.84 418.138 67.84C415.749 67.84 413.359 68.5653 410.97 70.016C408.581 71.3813 406.405 73.2587 404.442 75.648C402.479 78.0373 400.901 80.7253 399.706 83.712C398.597 86.6133 398.042 89.5573 398.042 92.544V124.16C398.042 125.184 397.658 126.08 396.89 126.848C396.122 127.616 395.226 128 394.202 128ZM491.744 62.592C492.853 62.592 493.749 62.976 494.432 63.744C495.2 64.512 495.584 65.4507 495.584 66.56V124.16C495.584 125.184 495.2 126.08 494.432 126.848C493.664 127.616 492.768 128 491.744 128C490.635 128 489.696 127.616 488.928 126.848C488.245 126.08 487.904 125.184 487.904 124.16V108.928L490.08 107.904C490.08 110.293 489.397 112.725 488.032 115.2C486.752 117.675 484.96 119.979 482.656 122.112C480.352 124.245 477.621 125.995 474.464 127.36C471.392 128.64 468.064 129.28 464.48 129.28C458.677 129.28 453.472 127.787 448.864 124.8C444.341 121.813 440.757 117.717 438.112 112.512C435.552 107.307 434.272 101.461 434.272 94.976C434.272 88.32 435.595 82.4747 438.24 77.44C440.885 72.32 444.469 68.3093 448.992 65.408C453.515 62.5067 458.635 61.056 464.352 61.056C468.021 61.056 471.435 61.696 474.592 62.976C477.835 64.256 480.651 66.0053 483.04 68.224C485.429 70.4427 487.264 73.0027 488.544 75.904C489.909 78.72 490.592 81.664 490.592 84.736L487.904 82.816V66.56C487.904 65.4507 488.245 64.512 488.928 63.744C489.696 62.976 490.635 62.592 491.744 62.592ZM465.12 122.112C469.643 122.112 473.653 120.96 477.152 118.656C480.651 116.267 483.381 113.024 485.344 108.928C487.392 104.747 488.416 100.096 488.416 94.976C488.416 89.9413 487.392 85.4187 485.344 81.408C483.381 77.3973 480.651 74.1973 477.152 71.808C473.653 69.4187 469.643 68.224 465.12 68.224C460.683 68.224 456.672 69.376 453.088 71.68C449.589 73.984 446.816 77.1413 444.768 81.152C442.805 85.1627 441.824 89.7707 441.824 94.976C441.824 100.096 442.805 104.747 444.768 108.928C446.816 113.024 449.589 116.267 453.088 118.656C456.587 120.96 460.597 122.112 465.12 122.112Z" fill="#050F04"/>
</svg>
